/* XPM */
static char *_529325287228[] = {
/* columns rows colors chars-per-pixel */
"64 64 148 2 ",
"   c #030201",
".  c #090603",
"X  c #0B0906",
"o  c #090708",
"O  c #0D0B0A",
"+  c #120C06",
"@  c #120E0B",
"#  c #15110E",
"$  c #19130E",
"%  c #0F0E11",
"&  c #161311",
"*  c #1A1612",
"=  c #1D1915",
"-  c #191519",
";  c #1E1B19",
":  c #221C15",
">  c #221E1A",
",  c #281F18",
"<  c #272017",
"1  c #25211C",
"2  c #2B241D",
"3  c #2E281F",
"4  c #30271F",
"5  c #32281F",
"6  c #1E1A24",
"7  c #221D21",
"8  c #201C2A",
"9  c #262421",
"0  c #2B2622",
"q  c #2E2923",
"w  c #2A262D",
"e  c #2E2C2A",
"r  c #332C25",
"t  c #382F27",
"y  c #352E29",
"u  c #382F2A",
"i  c #373027",
"p  c #393127",
"a  c #36312B",
"s  c #3B342C",
"d  c #3F382E",
"f  c #2D2B31",
"g  c #322E33",
"h  c #322E39",
"j  c #353435",
"k  c #3D3631",
"l  c #3E3932",
"z  c #3C353C",
"x  c #3E3E3C",
"c  c #40372E",
"v  c #41382F",
"b  c #403730",
"n  c #433B32",
"m  c #483F35",
"M  c #443E39",
"N  c #474037",
"B  c #494037",
"V  c #44413D",
"C  c #4C433A",
"Z  c #4F493F",
"A  c #50473D",
"S  c #52493E",
"D  c #5A4F3F",
"F  c #434240",
"G  c #4B4742",
"H  c #4E4943",
"J  c #4B474B",
"K  c #4B484C",
"L  c #554C42",
"P  c #584F44",
"I  c #554F49",
"U  c #575047",
"Y  c #5A5146",
"T  c #55514D",
"R  c #5D544A",
"E  c #464551",
"W  c #494653",
"Q  c #5B5651",
"!  c #5F5954",
"~  c #52505B",
"^  c #5E5B5B",
"/  c #60564C",
"(  c #63594E",
")  c #605750",
"_  c #655B52",
"`  c #695E53",
"'  c #645F59",
"]  c #6B6156",
"[  c #67615B",
"{  c #6B635B",
"}  c #6F685C",
"|  c #70665D",
" . c #756A5E",
".. c #6C6662",
"X. c #6B6965",
"o. c #746C64",
"O. c #796E61",
"+. c #726F6C",
"@. c #7B7066",
"#. c #75706B",
"$. c #7D736A",
"%. c #777675",
"&. c #7B7671",
"*. c #7E7973",
"=. c #80766C",
"-. c #83796E",
";. c #887C6F",
":. c #857C71",
">. c #887F74",
",. c #807F7D",
"<. c #898176",
"1. c #83807F",
"2. c #8D847B",
"3. c #90867D",
"4. c #91897F",
"5. c #8C8885",
"6. c #948B83",
"7. c #988F84",
"8. c #948F8B",
"9. c #979086",
"0. c #9B9286",
"q. c #9C9389",
"w. c #9F9790",
"e. c #9F9B98",
"r. c #A1968B",
"t. c #A4998E",
"y. c #A29690",
"u. c #A59B92",
"i. c #A99F95",
"p. c #ADA59E",
"a. c #B4AA9F",
"s. c #AEA7A0",
"d. c #AFA8A0",
"f. c #A8A7A9",
"g. c #B3ABA4",
"h. c #B7B1A9",
"j. c #BBB5AD",
"k. c #B4B2B3",
"l. c #BDB7B0",
"z. c #BEB9B2",
"x. c #B9B9B8",
"c. c #C1BCB5",
"v. c #C5BFB9",
"b. c #C6C1BA",
"n. c #C9C3BD",
"m. c #D7D7D6",
"M. c #DADAD9",
"N. c white",
/* pixels */
"L 0.2.4.2.6.6.6.9.9.7.9.7.6.7.6.4.4.2.2.<.2.2.2.2.2.2.4.2.2.2.4.2.6.2.6.6.6.6.6.6.4.6.6.7.5.6.0.5.0.7.6.6.2.2.2.2.3.7.] : 9 x.N.",
"7.b.c.z.v.v.v.v.n.n.v.v.v.c.c.l.z.z.z.c.z.j.h.h.j.l.j.j.l.l.c.j.c.l.c.v.v.v.n.v.v.b.c.c.c.c.c.z.j.j.h.h.h.h.j.j.j.j.c.a.> 9 %.M.",
"/ / / R ( ( ( _ ` ] ` _ / _ _ ] ] ] { ] ` _ ( _ ( / / / / Y / / / / / _ _ _ _ ` ` ( ( ( ` ` ] ] ] _ _ / ( ( _ / / ( / _ ; q X.M.",
" .  $ & $ $ @ @ @ @ @ & @ @ @ @ # + # @ # @ @ @ $ # * # @ @ $ $ # $ # $ @ $ @ # @ $ @ @ + @ @ @ @ @ @ # # @ # # &   ` =.1 w X.M.",
"@.  P m v n b n n b b b b n s c m V m m B B B B C L C B B C C C C m n n b n n c n d c n d d v n n m m m V B B L S d o.<.> w X.M.",
"`   C v n c d d s u d s s s s b B B B N m B V N m n n m n b k n c c n b b c c a s s s a s c d v c a c d m m m n v s }  .; 0 X.M.",
"_ 6.2.<.2.>.-.:.-.-.:.:.-.-.:.=.:.:.:.<.<.<.>.>.:.:.:.:.:.:.>.2.2.<.2.>.-.:.-.=.-.:.-.-.:.$.$.$.$.O.$.$.:.:.:.:.<.;.<.O.9 9 X.M.",
"R / / / R / ( ` ` ] ` ` _ _ _ ( ( / Y Y Y R / U Y Y R R P R R / / / R / ( ( _ _ _ R _ ` _ ( _ ] ( ` ` ` ( R R Y R R U ] 7 9 X.M.",
"d n v l d v n n m n l N N N N N B B C C B m m m n l n b n b c n n b b n l d d c n k n n m n m n n N d s l l N l d d n m ; q X.M.",
"O O O X X o         o o X X X X O O O O O O O O X O O o O   O O . O O O O X O O O O O . O o O O O O O o o @ O O O X     * e X.M.",
"  e ; = * # # o o o @ & & # # * @ & % * & & & # # & & & * .   & % * @ & & & # & & # @ O & # & % & # # O @ e 9 > = = @ o > F ,.m.",
"& Q x a q 1 1 # o @ = ; ; > ; 9 * 1 ; 9 > > > ; ; 1 : : 9 X . > ; > = ; > > > > ; ; ; = > > > > ; > = # ; ! G N a y 1 & > F ,.m.",
"d :._ L V s a + z F ; q 1 #.e a > r +.w r y q q q q 0 q u O O r q r q q q q q 2 T J > > 2 +.f r 0 e +.& 2 4.#.] U N a 2 9 F ,.m.",
"Y 6...R L n v > @ - q n d 9 1 V u d > y l N l n d s a l M @ + u y k s y k k a m r 9 q r M q > n a n ; & a u.2.@.( S N 3 > F ,.m.",
"Y 6.o./ C n d 1 & 9 l L N C n L n C n L B L C S C m n n m $ @ n v B m a C C m A B B n n L C n L N L i > l p.2.o.( L d 3 7 F ,.m.",
"r o.! m k r r = = 0 N ( C L C Y B L C Y C U Y R U Z N n Y : + P m C n n I P S I L L C B P Y C / Z R i 1 a &.[ R C n r = 7 F ,.m.",
"2.2.4.4.<.2.0.I O 9 n R C S S Y C L m Y C P Y ( P A n p / : @ L m m v d S L L L L L C B Y Y m R S R 3 a u.2.2.4.2.<.2.r.q x *.M.",
"/ / / / / / ( r x K a L C L L P B P m ( C I Y / L A c q ( : X C B p a n S Y S S L S S C Y Y m I S R ..j 0.P / / / / / _ 9 V ,.m.",
" .  # # X a 3.a @ ; i D B L Y Y v 1 # O d L / R L L p : 5.1.,.[ m q m C L Y L a ; X ; m R Y m Y L R > j t.m . # $   ` @.9 x ,.M.",
"@.  P m B R 3.c # 0 s C C L ( 1   X O & & > L / S L n q z g w h D 2 S S L B # o O O # # i P m R S Y n m t.m : A C n @.=.9 F *.m.",
"`   B n c P -.u & q l U Z _ & o O & * ; 1 q a C P C n m q & & = Y 2 Y L B O O O # * > > > b m ( C R n B r.p $ m v a o. .9 x ,.M.",
"_ 6.2.<.-.<.=.d @ 0 l ! Y ; o & = : 9 r r k d d L P L m ` : X S D a Y m @ @ - = = > q q r k n ( S Y c M 7.} 4.2.<.;.<.O.9 F *.m.",
"R / R / R R ( r x K a ( Z . # > 9 q y p b m m d m P P L ] : . S P n P s   = 9 > 1 q v d t m n _ S Y #.j 7.L / / R R U ] w x 1.m.",
"& & * & & * & @ = > l ( i   = q y d b n C L C s L P L m ` = . P A n Y & O 9 s 1 q s m m y m n ! S Y 9 q * & & & & * & @ > F ,.m.",
"& ! M s y 9 1 * * q m ] @ o ; d b m B n B G C d I R S B ` = . Y n m L   = r s 9 k k m b r C n _ S U B s q ^ H N a q 1 : > F *.M.",
"t $.{ H m d t > - q m ` #   2 N m n n m B C C a L / A m ` : . P n m C   > a s y k s b u r C m ! S R C a j <.} ] Z l t 4 1 F *.M.",
"S 2.:.( P m s < - r n _ @ o i B B n n k m B m t L R C n _ $ . C t A Y   2 n B y k s r u r m s ) C R C i l t.;.#.R C v s 7 F 1.m.",
"S 4.-./ R B p > * q n ( @ X a Z B n s a l n n u L I m n ( : X s v S Y   9 n A a k u u y q k s ! B Y C i s p.:.@.Y S d a 9 F ,.m.",
"L 3.:./ / m i > * e n R O @ s Z C m 0 q s s k r L U B s R = . B A A I   q d A y u r y r 9 r a ! m D B q k u.*.@.Y C d a 9 F ,.m.",
"S 2.:./ / m t > = q n Y # # s C V k 2 0 a r d r U ! B s / * . ( A C Y   2 d A y r r r r > > m ` n D L q s t.;.$.P C v s 9 x ,.m.",
"r  ._ C C a 2 = = e d U @ & k C C a t q 9 t d t U R B i Y $ . ( B A L   2 n B a q r q r * q B { m S L t q *.[ _ m a q 3 9 x ,.m.",
"2.2.2.5.<.2.0.I O q l D # & s C S N C d 1 d n t I ( C s A $ . ( A A L   2 c C u q u r q = n m { B A S V q.2.2.4.2.<.2.q.e x ,.m.",
"/ / R / ( / _ s # r n L # * s B L C C b y m n t L / A p m $ . / C S P   1 d C a q a k q > n n { B C L C 7.P / / / ( / ( 9 x *.M.",
" .  $ $ . a 3.a # q n D # & s m C P C k s B b a L / C t c + . Y C S L   < b C c u s B s u L m ..m S L V t.B . # $   ] @.q M ,.M.",
"@.  L B B R 2.d O q l B x G ` [ o.@.o.[ ..o.{ _ *...n r v $ . P C S L j I ` o.' o.o.o.' [ o...0.c L D V r.B * S B n @.=.9 x ,.m.",
"`   C c d Y -.a # y l N Y U / R s ) C ] B L Y B L R A t C $ . Y S B P A C A / ( P Y / / L P L P C L S C r.a $ N v p o. .9 x ,.m.",
"_ 7.2.>.<.<.$.d @ e l N P / Y / s ( A ] C P Y m P A 8.W c @   m k.6 S S G L R _ Y Y ( _ Y L S R S S C C 9.{ 4.2.:.;.<.O.9 x *.M.",
"R / / R R U ( d @ 0 V S L R R R n / L ] S L P B P ( r & c + . ( & * S C L L / ( Y Y / _ Y L D Y A C B C 6.L R ! R ! U _ q F ,.m.",
"      o . .   X ; 0 N S L Y Y R n / A ] S P P C A 5.~ y S + . / d f.6 S P L R _ Y Y R / Y S L Y C S C d # & & & & * & @ 7 F ,.m.",
". j q 1 ; # # @ ; 2 n C P R ( R m ( A ] A P P B / s % k _ $ . / C & ; A L P Y _ Y Y _ R Y S L L B C A d 1 a e q 1 ; & O > F ,.m.",
"= T H l y 9 > & - 1 a L R Y R R C / m | L P P m R B 5.E L : . m k.8 n s L L P _ L P _ Y Y D L S S m C r q R L C l q > $ 1 F ,.m.",
"d o.} U C s t > * : t L R L U ( m R A ] L P L n R Y 2 % L : . _ & ; L y L L L / P P / A C I U C L m C q e *..._ U C t 1 1 x ,.m.",
"( <.$.] L m v > * > s ` o @ > 1 * : > > 7 > : = l I v s L * + P B ( B   * : * & > > = = > # O Q R v m 3 y q.>.o._ L n 3 1 F ,.m.",
"( :.$.{ L m n > * > s _   = s a 0 q r s d s u u H ( v t C $ + L A ( n   9 r r ; r u q 9 a 2 1 ..S m s 9 r q.:.o._ L d 3 1 F ,.m.",
"R 2.$.{ L m v > * 9 l /   > n C r t y n n k n C I P a 4 A $ $ L B R n   r a n r y b y r B B s $.D v d > r 0.:.o._ L d 3 1 F ,.m.",
"a o.R L n a r = * 1 d P   : d n q q r u d s m m H m r a S $ $ A C S n   a c k r q y q r B V d #.L n p * q #.{ R L n t > > F ,.m.",
"2.2.4.4.<.2.0.I X > y C   = a c 2 2 q q y a n n G C p n P $ $ S S m d   p n s s a 9 q r B n v o.Y C i y u.2.2.6.2.<.2.w.e x ,.m.",
"/ / / R ( / _ s O = r n   * d n > > 1 2 0 t s b L P n v S $ $ S A v y   s m b r m n r t B n c ../ S B a 0.L ( R ( ( R _ 9 x ,.m.",
" .  $ $ O a 3.d X = < p   * s t ; * = 1 1 q d s C U s a S $ $ S S u s   k B m y n m t a m m p o./ S A 2 u.B . # $   ] @.9 x ,.m.",
"@.  L m B U 3.v O * > i   * t > * ; = ; 1 3 d p C U r i Y $ # A S y n   s m C n V m n d m B c ..R A S a u.m : A C v @.-.q x ,.m.",
"`   B n s U ;.r q f & s   * > = ; 3 & * = q s i C Z 1 i D $ + S C C B   y m B m C n n d n C n ..R A &.g r.d # m v p o. .9 x ,.m.",
"_ 6.2.>.;.<.-.l o O * a   # > = 0 2 # * $ i s q C C < r C $ + C C B N   a m m n m d n a l B d o.S Y > s 0.] 6.2.>.:.<. .9 M ,.m.",
"R / R R R R ( d X # $ c   @ q q 3 2 # * * r a 2 V Z q 3 C * X S B m d   a m m k n u s y i B m X.C R n M 7.L / R ( R Y _ 0 x ,.M.",
".   o   . .   O # @ $ c   O 2 2 3 2 , = 1 r t , n Z i q B * . S v d s   r n m p n r q r a N n } A L n r & & & * & * & # 1 F *.m.",
"o s 9 1 = * & & O # : c   O 2 < 2 1 , > r r r , M C s 2 v $ . C q d t   r d n c k q 1 y i n s ..B D s 9 > y e 9 > = & X 7 F ,.M.",
"& ! V s e 0 1 * 9 9 * p   X 1 < , 1 , , 2 r r > l B a < C @   c < r y   r c m s r 2 1 t t v i ..B B ..> y ! I M a q 1 & > F ,.m.",
"q  .! N l t q > O o $ 5 9 a L C L L C L Y ! R L o.I 4 < n @   9 r 2 i j _ { o.} ' ! [ ..[ #.} e.i r * > l $.] Q V s 3 = 1 V ,.m.",
"m =.| S B p r 1 X O = 4 : 4 r * : 2 > u , r t q t t 2 + ..^ ' C 4 3 r r a c C n v c n n m B r P r r s q x 6.} ] C d r > 1 V ,.m.",
"a  .{ C v t < > O X * < : < 4 * : : : t : 2 r 4 r < > < 7 - - 6 r 2 2 r t p m b c c c n v B 3 L t v v r l :.] ( m s 3 : 1 F ,.m.",
"r } ( v c 9 , * O O * < * < r $ $ : * 2 * 2 4 < r < > 2 & o X X i 5 < 2 2 u n s s s v v m v 2 S t m v q l $.( Y s t 1 $ > F ,.m.",
"2 R U r t > # @ 9 > $ : $ L = $ + : M & : 2 2 , 2 > 4 : p +   r 2 2 < : < r p r L z t v t } ; A r s { ; l | L C 3 2 = + > F ,.M.",
", D C 2 2 * X # @   $ : : @ @ * + = X # : , < , < , < : r .   r 2 , r : : 2 t p 2 & t a c > % A 2 i ; ; l R C m , = #   > F ,.m.",
"  = $ X O       o X $ : : , 2 $ + $ $ < $ : < 1 , , : $ 2 .   2 , > < , @ * < < , : 4 2 > , $ < # > 1 # # , $ $         ; F ,.m.",
":.6.6.0.y.u.p.g.g.s.p.g.g.g.g.g.g.g.h.h.h.a.g.g.d.p.p.p.p.p.p.p.p.p.p.p.p.p.p.d.s.p.p.d.g.i.u.t.t.w.0.q.0.4.>.-.2.3.;.;.j M.N.N."
};
