/* XPM */
static char *_529490431332[] = {
/* columns rows colors chars-per-pixel */
"64 64 115 2 ",
"   c #010101",
".  c #090706",
"X  c #0A0807",
"o  c #060708",
"O  c #0C0B0A",
"+  c #110E0C",
"@  c #13110E",
"#  c #19130F",
"$  c #0F1011",
"%  c #141312",
"&  c #1A1612",
"*  c #1D1915",
"=  c #17171A",
"-  c #1C1B1B",
";  c #211C16",
":  c #221E19",
">  c #25211D",
",  c #29241E",
"<  c #1F2020",
"1  c #242323",
"2  c #2B2621",
"3  c #2E2924",
"4  c #282729",
"5  c #2C2C2B",
"6  c #332C25",
"7  c #382F27",
"8  c #342E29",
"9  c #382F28",
"0  c #35312B",
"q  c #3B342C",
"w  c #3F382F",
"e  c #333333",
"r  c #3B3631",
"t  c #373837",
"y  c #3E3933",
"u  c #373838",
"i  c #3C3C3C",
"p  c #40372F",
"a  c #40382F",
"s  c #413730",
"d  c #443C34",
"f  c #483F36",
"g  c #433E3A",
"h  c #493F38",
"j  c #474037",
"k  c #494037",
"l  c #46403B",
"z  c #4C433B",
"x  c #50463D",
"c  c #52493E",
"v  c #454443",
"b  c #4D4740",
"n  c #4D4943",
"m  c #474848",
"M  c #4B4B4B",
"N  c #544C43",
"B  c #584F45",
"V  c #574F48",
"C  c #584F48",
"Z  c #4F504F",
"A  c #575047",
"S  c #5A5147",
"D  c #54514C",
"F  c #5D544B",
"G  c #535353",
"H  c #5F5750",
"J  c #5F5952",
"K  c #565758",
"L  c #565858",
"P  c #58585A",
"I  c #60574D",
"U  c #62594F",
"Y  c #655C52",
"T  c #685E54",
"R  c #635E58",
"E  c #676056",
"W  c #696056",
"Q  c #666159",
"!  c #6D645B",
"~  c #6F685E",
"^  c #70665C",
"/  c #72695E",
"(  c #666563",
")  c #6D6B6A",
"_  c #756C62",
"`  c #786F65",
"'  c #7A7166",
"]  c #77706A",
"[  c #7D746A",
"{  c #7F786C",
"}  c #7F7770",
"|  c #7C7B79",
" . c #80766C",
".. c #82796E",
"X. c #847C72",
"o. c #887F74",
"O. c #8A8176",
"+. c #8D847A",
"@. c #8F897E",
"#. c #91877E",
"$. c #91887E",
"%. c #938B83",
"&. c #979187",
"*. c #989187",
"=. c #999189",
"-. c #9C9C9B",
";. c #A0988F",
":. c #B5AFA7",
">. c #B7B0A9",
",. c #BAB4AC",
"<. c #BDB7B1",
"1. c #BEB8B1",
"2. c #C2BCB5",
"3. c #C5BEB8",
"4. c #C6C0BA",
/* pixels */
"c $.%.%.$.%.%.&.&.=.=.=.%.%.%.%.$.$.+.O.O.+.+.+.+.+.+.@.#.+.#.#.$.$.$.$.%.%.%.%.%.%.%.&.%.%.$.*.*.&.*.*.=.%.%.@.@.#.%.%.~ , 5 -.",
"$.,.,.2.2.2.3.4.3.3.2.2.2.2.1.<.1.1.1.1.1.,.>.:.:.,.>.,.,.,.,.,.,.,.1.2.2.2.4.4.4.2.1.1.1.1.2.,.1.,.,.:.:.:.:.,.,.,.,.,.;.y 5 ] ",
"x F F F F F I I Y Y U I F Y Y Y E E W W E U H F H F F F F S S F F S F H F Y Y Y Y U F I Y Y R R W R I F F F F F F F F U H 6 e ( ",
"k * & & & & & & & * & & & & & * * * - & * & & * & * * * * & & * * * & & & & & & * & & & * * * * * * * * & * * * * * : B ! 0 5 ( ",
"z ; f a p p p p q q q q q w q w a a j f d d f j j z z k k d k k f f a p w w w q q q w q q q q a q a d d a f k k z z k ! / 0 0 ( ",
"a 6 z z z f f z f f j f d d k l z c c c z N c c c x x z z z z z z z z z l k k d d f f f j k k k k k f f j z c c x z z W ! 6 5 ( ",
"I ..o.X.X... ...{  . . . . . .[  . . . ...X.....{  .[  ... .....o.X.X.X...[  .[  . . . .{ [ [ [ ' ' ` ` '  ..... . . ...~ 0 0 ( ",
"f I I I I I U Y U W W T U Y U U U U F F F F F F F S S F F S I F F I I F U I U Y U U U U U U U U Y Y U T U U F S S S F F S 3 e ( ",
"; 6 7 7 7 7 q q q q q q q w q w w w w p p p w w q q q 9 7 7 8 8 7 7 7 7 q 7 6 8 q 9 q q q q w q q q q q 6 7 7 q 7 7 7 q 7 , 0 ( ",
". + + + O O O X X X X X O O X X X O X O O O O X X X X . X O X . X X X X X . . . . X . . X X X O O X . X O O $ + @ + O O O & e ) ",
". 4 > - & # + .     . . X                                                                     . o o o     + 5 3 , - - % + - v | ",
"& n l r 6 2 > + O @ % @ @ O X                                                             . O + + @ + + X * J F z y q , ; , m | ",
"d ' E A l a 7 & O > > > O O O X .                                                       . X O + # - > > @ , X.../ F z q , 2 v | ",
"A ../ F z d q & & 6 q > O # # O O                                                       . O .   O > 9 q - 5 &.$.[ Y N d 6 , v | ",
"j ' ! S j w 7 * > d z & @ : & @ O                                                       O O X . X > j z 3 6 +.X./ F x w , , m | ",
"q ! Y c d w q - , j c % - 2 * @ O                                                       O + O + + & j c 6 r ' _ R N z w 6 , v | ",
"z _ ^ Y S V N 2 3 z z % , 2 * @ O                                                       X + + % % % j c w D ` ` ( R H S z 8 v | ",
"[ } X... .X.[ r e b s * 6 3 * % O .                                                     O + & : ; > j c l #.X. .X...[ ..[ g v | ",
"F l z z l F Y 3 > h 2 : 8 3 * + O                                                       X + * : , , a c l +.U l z z z I Y 0 v | ",
"B * : ; : B ^ 5 , z : 3 w 3 * + O                                                       O @ ; 2 6 q j c d +.S * ; ; : F ~ r v | ",
"N : d d f T _ 6 2 f * q q 2 * + O                                                       O % : 2 7 q d B z +.S : d d d W / r v | ",
"B g F F F ^ ^ 3 6 y : s 8 , * + O                                                       O # : 2 6 q d N z +.F g F S F _ ! q v | ",
"Y [ [ ' ' ` ! 3 e q : s 6 : * $ X                                                       O # : 2 3 6 d B z +.! [ [ ' ` ` W r v | ",
"s d d g d d d : 2 3 > d 2 : * @ O                                                     . O + , 2 3 3 d N g J d d d g d d d 3 v | ",
"+ 2 1 : * * & # 3 3 2 y , - * @ O                                                       + # : 2 2 2 y B w > 3 2 1 : * & & , v | ",
"& D N d q 2 , & 2 3 , y 2 : * @ O                                                       O + ; , , , q B d 5 R H N d 8 2 : , v | ",
"q ' _ A x p 8 * , 3 3 a 8 , : # O                                                     . O % : 2 2 , 8 x d q o.' _ V j q 6 3 v | ",
"z ..[ U N d q ; 3 3 3 j q 8 1 % O                                                       O * 2 3 3 , q b y r %.O.' F z d q 3 v | ",
"z X. .U S f 8 ; 3 3 3 k l r : % +                                                       X = 8 r 9 3 q B w 0 %.o.' F z d 8 3 v | ",
"z ..[ U B a 6 * 3 , , N B 0 * $ O .                                                     O * q b b 9 r B w 8 #.X.' F z w 7 3 v | ",
"p / ^ S x q 3 * , , 6 H b 7 - $ o                                                       O * 6 b C n d C d 5 } ' ^ N d q 6 2 v | ",
"B ' ' / W Y F 3 , 3 z A l q : @ o .                                                   . o & 6 f b F F B d H } [ ` ! R J F q v | ",
"/ / ' ` _ ' _ 0 , w S z z 7 - @ O                                                       X & 6 j c S R I z +.' ` ' ` ` ` / y v | ",
"F q 7 q q A W 3 > j S x j 7 * O X                                                       O & 8 l b B B I z +.I 7 7 0 q S Y r v | ",
"S * , 3 , F _ 6 > z S x z 9 & + X                                                       O # 3 d c B B N l #.S & , , 6 U ~ r v | ",
"N , a f j E / 3 > z A c z > # + X .                                                   . O + , y x B B c z +.B > f d f W ~ t l | ",
"U H ! ! W ' / 3 > z F c 0 - * + X                                                       X + % 6 d B B x z #.R I ~ W W ' ^ q v | ",
"I / / / ~ ~ Y 3 > z F j , > - + X                                                       X + % * 2 z B x z O.W / / / ~ ~ U w v | ",
"> 2 , , , , > & , c x , , , * @ O                                                     . X + * : : 2 x c d l 6 6 6 8 6 6 3 2 v | ",
". * & % + O O + > z 3 , 3 , & O X                                                       O + : 2 2 > 0 c d ; > - - * & @ + > v | ",
"O y y 0 , : & # : 0 , 3 , > - @ X                                                       O + ; , , 3 2 z w 1 l g y 0 , * # : v | ",
", J J x y 6 , * , 2 2 6 > : & O .                                                       O + : , 3 3 r N w 3 Q Q F n d 2 : 1 v | ",
"x ' ` U c a q - , 2 2 , * ; & O .                                                       X @ , 3 6 3 j S 7 3 X..._ Y c w 3 2 v X.",
"S  .[ W c k q - 2 2 , : & - & O .                                                       O + : 6 6 6 z F 7 3 O.O.` T N d 6 2 m | ",
"N [ ' Y c d 7 - , > > ; & * # O .                                                       X + , 8 q 6 j U 3 2 X.O.` Y N w 3 2 v | ",
"q ~ W A k w 6 * > : : * % * & + .                                                       X + > 0 q q j U 6 3 _ _ R S z q , , v | ",
"/ X...{ ' ` / q ; * * ; # * % O .                                                       . + : 6 7 q k F p _ X.X... .' ' ~ y v | ",
"^ [ [ { [ ` ~ 6 ; & & > # * @ O . .                                                   . . O : 3 6 q z F d +.` '  . .' ` ! y v | ",
"U I I I H Y T 6 & & & > & & # O X .                                 o                 . . + : 2 3 9 z F d @.T F F F F T R r v | ",
"B , , : , N W 6 & & # , ; ; - O                                           o .   o   . . . % : 2 , 6 j J d +.S , > , , B T w v | ",
"S * 7 7 7 U / 0 , * & > > , & .                   o       o o   . o o   o . o o o o o . . % 3 3 , , j F z +.S * q q q Y _ r v | ",
"c , f f f T / 5 = # & > q , + . .                     .     o o o . o o . . O o O o X .   + 6 9 3 , f S z +.N 2 d d d T W r l | ",
"T [ } [ ' .._ 3 # # & 7 6 & + . .             o   o . o o . O o . X O $ O O O $ O $ O O . + : f l 0 d B y @.^ '  .' ' ../ r v | ",
"F T W W T T U 3 # # > q > # O . .       o   o o . . o o O o O O O O $ $ + @ $ $ % % % O . O ; 3 y N j B l O.Y Y T T T Y I r v | ",
"# % & % % # % @ # % 7 > & # O .       o o o o X o O O O O $ $ $ % % $ % = = = % = * = = + X ; 2 6 f R F w 3 : : : : : * : 2 v | ",
". 1 : * % # O @ > , , & ; # +     o   . . . X O O O $ $ $ % % % = = = - - = = < < - - < : + & 2 6 q c Y r * 1 2 > * * + O - v | ",
"@ l d 0 6 , : & # > ; # & # .   o o o X O O $ $ $ % % = = = < = < < < < 1 1 1 1 1 4 1 4 4 - & : 3 7 a c 0 3 n b g 8 2 : & : v | ",
"> Y F j q 6 2 & + * , # @ . . X X X X $ $ $ $ % % = = - < < < < 1 4 4 4 4 5 5 5 5 5 5 5 e 5 < * ; 7 w p , 0 ~ R F l w , ; , v | ",
"q / W c f 7 6 * + ; , # O o O X O + $ $ $ % = - - < < < 1 4 4 5 5 5 e e e t e e u u u u u u u 4 , 3 y a 8 r X.` W c y 6 , 2 v | ",
"6 W T x a 6 , & @ & # + . . $ + $ $ % % = = - < < 1 4 4 5 5 5 e e t t t u u u u i i i i i v v v i 3 3 w q q [ ! Y z w 2 : 2 v | ",
", U I a q , ; # - ; & $ O $ $ + % % = * < < < 1 5 4 5 e e e u i i i i v v v v v v m m m m m M M M m , 7 w q _ E S a 6 , * , v | ",
"; B c q 6 ; # # @ * + X $ % % % = = - < < 4 4 5 e e e t i i i v v v m m m m m m M M M Z Z Z D M G G v , 5 q W B x 7 , ; # > v | ",
"# k k 3 , # + # + O $ $ $ % = = = < < 1 4 5 5 e e e u i v v v m m m M M M M Z Z Z G Z G G K G K K K L l : q c z a , ; @ + - v | ",
"  + + . O             o o X + $ $ = = - < < 4 5 e t u i i v v v m m m M M M Z M Z Z G G Z K K K K L P L 3 @ # + + . .     * t ) "
};
