/* XPM */
static char *_0e64ddfa27f46d9e74b9f0e8baa1c89[] = {
/* columns rows colors chars-per-pixel */
"50 50 185 2 ",
"   c #040000",
".  c #0C0504",
"X  c #0E0A0A",
"o  c #120D0D",
"O  c #15100F",
"+  c #140F10",
"@  c #161212",
"#  c #1A1313",
"$  c #1C1817",
"%  c #1C1718",
"&  c #1E1919",
"*  c #2B1414",
"=  c #2C1718",
"-  c #231C1C",
";  c #2C1E1E",
":  c #3C1E1E",
">  c #24201E",
",  c #271C23",
"<  c #262121",
"1  c #2A2524",
"2  c #2C2926",
"3  c #2E2A29",
"4  c #352323",
"5  c #3B2324",
"6  c #322C2C",
"7  c #35312F",
"8  c #3A302F",
"9  c #332C31",
"0  c #363231",
"q  c #393534",
"w  c #3C3837",
"e  c #3D3939",
"r  c #433736",
"t  c #4F3535",
"y  c #413D3C",
"u  c #4D3C3F",
"i  c #553C3C",
"p  c #5B3D3D",
"a  c #44403F",
"s  c #3E3442",
"d  c #423643",
"f  c #453D42",
"g  c #4A3D4C",
"h  c #523F43",
"j  c #4C3E54",
"k  c #464242",
"l  c #494443",
"z  c #4C4946",
"x  c #4C454A",
"c  c #4C4949",
"v  c #574645",
"b  c #524C4C",
"n  c #54514E",
"m  c #514551",
"M  c #534F51",
"N  c #554659",
"B  c #584C59",
"V  c #565250",
"C  c #595654",
"Z  c #5D5956",
"A  c #5E535E",
"S  c #5E5B59",
"D  c #6A4243",
"F  c #674B4C",
"G  c #684849",
"H  c #604D52",
"J  c #64565B",
"K  c #69575C",
"L  c #625E5C",
"P  c #64605E",
"I  c #5E4C62",
"U  c #614F64",
"Y  c #635264",
"T  c #6B576F",
"R  c #634F71",
"E  c #675072",
"W  c #6A5574",
"Q  c #6C5972",
"!  c #715B76",
"~  c #755D7D",
"^  c #5F6062",
"/  c #666260",
"(  c #696563",
")  c #6C6965",
"_  c #6E6B69",
"`  c #716069",
"'  c #7F646D",
"]  c #716E6C",
"[  c #75726F",
"{  c #746374",
"}  c #75617B",
"|  c #79637C",
" . c #776878",
".. c #737170",
"X. c #7A737D",
"o. c #876769",
"O. c #806C76",
"+. c #8C6D77",
"@. c #807377",
"#. c #8F717A",
"$. c #93747D",
"%. c #795D86",
"&. c #7C6583",
"*. c #7F6A83",
"=. c #7C628B",
"-. c #80658E",
";. c #836C8B",
":. c #8C6D8F",
">. c #847E83",
",. c #9E7D86",
"<. c #826692",
"1. c #856A94",
"2. c #896E96",
"3. c #896E99",
"4. c #8D7494",
"5. c #8F7891",
"6. c #8E729A",
"7. c #917B91",
"8. c #92769D",
"9. c #95799E",
"0. c #987C9F",
"q. c #A17F8C",
"w. c #977BA1",
"e. c #997DA2",
"r. c #8B878A",
"t. c #8C8A8A",
"y. c #95808C",
"u. c #9A829D",
"i. c #979599",
"p. c #98979B",
"a. c #9C9D9F",
"s. c #A6848E",
"d. c #A68390",
"f. c #A98691",
"g. c #B08A95",
"h. c #B18D9B",
"j. c #A19E9F",
"k. c #9D82A5",
"l. c #9F84A8",
"z. c #9E9DA2",
"x. c #A185A6",
"c. c #A389A7",
"v. c #A286A9",
"b. c #A58AAB",
"n. c #AA8EAD",
"m. c #AD90AF",
"M. c #B793A2",
"N. c #BE99A9",
"B. c #AB8FB0",
"V. c #AE92B1",
"C. c #B295B3",
"Z. c #B499B5",
"A. c #B79DB9",
"S. c #B99DBA",
"D. c #A3A1A5",
"F. c #ABA0A4",
"G. c #A9A9A9",
"H. c #B2ACAD",
"J. c #BCA1BC",
"K. c #B5B5B4",
"L. c #B9B8B7",
"P. c #BBB7BD",
"I. c #BCBABF",
"U. c #C4A0B1",
"Y. c #C3C3C4",
"T. c #C5C4C9",
"R. c #C7C8CD",
"E. c #CDCCCC",
"W. c #D3D2D5",
"Q. c #D8D7D7",
"!. c #DCDBDC",
"~. c #E2D6DC",
"^. c #DDDDE4",
"/. c #E2E1E6",
"(. c #E5E5EB",
"). c #E9E9ED",
"_. c #ECECF2",
"`. c #F1EEF3",
"'. c #EFF0F4",
"]. c #F3F2F5",
"[. c #F4F4FA",
"{. c #F8F7F9",
"}. c #F7F9FA",
"|. c #FBFBFC",
" X c None",
/* pixels */
" X X X X X X X X X X X X X X X X X X X Xb. X X X X X X X X X X X X X X X X X X X X X X X X X X X X X",
" X X X X X X X X X X X X X X X X X Xm.m.B. X X X X X X X X X X X X X X X X X X X X X X X X X X X X X",
" X X X X X X X X X X X X X X X X X Xx.b.b. X X X X X X X X X X X X X X X X X X X X X X X X X X X X X",
" X X X X X X X X X X X X X X X X X X X~  X X X X X X X X X X X X X X X X X X X X X X X X X X X X X X",
" X X X X X X X X X X X X X X X X X X X X X X X X X X X X X X X X X X X X X X X X X X X X X X X X X X",
" X X X X X X X X X X X X X XB. X X X Xb.x.6. X X X X X X X X X X X X X X XJ.J. X X X X X X X X X X X",
" X X X X X X X X X X X XB.n.m.m.B.m.b.b.l.&. X X X X X Xm.m.V. X X X X XS.J.Z.n. X X X X X X X X X X",
" X X X X X X X X X X Xb.b.n.m.m.m.b.l.l.8. X X X X X Xm.m.m.m.B.c. X X XC.V.n.b. X X X X X X X X X X",
" X X X X X X X X X X Xb.B.V.V.m.x.k.k.:. X X X X Xx.v.n.m.m.n.b.l.k. Xx.b.n.c.x. X X X X X X X X X X",
" X X X X X X X X XB.b.v.b.b.b.v.0.8.8.9. X X X Xx.x.x.b.c.c.x.x.k.k.k.k.x.x.v.u. X X X X X X X X X X",
" X X X X X X X X X0.e.e.x.x.k.8.2.1.6.e.B.b.B.n.b.k.w.9.9.8.0.e.k.k.k.k.k.k.k.x. X X X X X X X X X X",
" X X X X X X X X X Xw.9.w.e.6.3.2.%.%.*.;.5.x.A.m.9.2.1.1.:.6.0.w.k.k.4.k.k.k.;. X X X X X X X X X X",
" X X X X X X X X X X0.w.w.e.E m c L ( ( ( P S M Y ~ 3.<.<.1.3.6.e.k.Q  X Xe.9. X X X X X X X X X X X",
" X X X X X X Xx.k.e.e.e.! m ) ] ) ( L L P P ) _ [ P f E 1.1.3.3.9.6. X X X X X X X X X X X X X X X X",
"x.k. X X X Xb.k.k.k.8.b ( _ ( ( ( L Z c a e 0 a C ( _ J g 1.2.2.6.6. X X X X X X X X X X X X X X X X",
"x.e. X X X Xk.k.x.&.C [ ) L L L P L C M e 6 6 , - w M P ) h =.1.1.1.&. X X Xb.x.l. X X X X X X X X X",
" X X X X X Xx.l.} V ] L c a z C Z C n y 8 3 $ # % 8 l b C P l =.1.<.1.4.w.b.n.B.n. X X X X X X X X X",
" X Xx.k.5.9.x.| a ] l , 3 8 y l l k y w 3 - $ # # < 0 l c n ( l 1.2.2.6.9.x.B.C.V.b. X X X Xb.V.C. X",
" X Xx.x.*. .x.1 [ C w $ $ $ ; 6 6 3 1 - # # O # # # < 6 a b V ( B w.6.6.9.l.B.C.B.l.8. X X Xk.n.{  X",
" Xb.b.n.D.P., ..Z l - # # # # % $ % $ # # # # # # # $ - 1 q a b ) ~ 0.0.9.e.b.b.l.w.|  X X Xx.u. X X",
" Xb.b.| |.|.l L y - # # # # # O # # # # # # # # # # @ # # @ @ 1 P c e.9.8.w.e.e.w.w.j  X X Xx.n. X X",
" Xx.B.>.|.|...l > # # # # # # @ @ # # # # # # # # # # X y b $ - y _ W 8.8.w.e.w.w.6. X X Xk.x.m.S. X",
" X XZ.r.|.|.E.+ # # # # # # # # # @ # # O # # O # # o z.(.^.. $ , S U e.8.8.8.8.1. X X X X X9.S.Z. X",
" X Xb.K.}.}.|.0 % # # @ # # O # # # # @ # # # # X f (././.[.- # % f P 3.8.8.8.8. X X X X X X X X X X",
" X X XQ.|.{.|.W.@ # # # # # O # # # $ $ $ $ # # D.'././.^.(.B % % 8 L ;.8.9.8.:. X X X X X X X X X X",
" X X X/.|.|.|.|.C - $ % # # # @ # # % $ # X y ).{.).(./.(.^.z.= $ 1 S Q 9.0.e.6. X X Xu.x.m.J. X X X",
" X X X(.|.|.|.{.E.- - - # # @ # $ $ $ $ o @.|.|.{.`.(.(.(./.T.: # < S Y w.e.9.0. X X Xw.b.C.J.J. X X",
" X X XY.|.|.|.|.|.n 3 < # # # - % - - $ I.|.|.{.{.'._.(.(.(.W.* - > S I 9.0.8.8.6. Xw.w.b.V.Z.u. X X",
" X X Xz.|.}.|.}.).!.& r - # 4 < % - 1 /.|.{.|.|.|.'._.(.(.(.Y.= - - L U w.0.8.9.w.w.w.e.l.m.C.u. X X",
" X X X_ ].{.}.{.G.T.i.v ; # t 0 - n |.|.}.}.|.{.[.'.).(.(.(.r.4 - , Z T w.9.9.w.w.e.k.k.k.b.m.b. X X",
" X X Xx |._.`._.(.).T.. ; @ 4 8 ..|.|.t.|.|.|.|.]._.).).(.(.x 4 $ 3 C *.e.w.9.9.e.k.k.k.l.x.c.x.5. X",
" X X X8.Y.(.).(.(.(.F.o @ # -   !.}.|.E.|.}.|.[.).).(.(.(.[.X , - l C 2.w.e.k.e.e.k.v.x.k.v.v.l.4. X",
" X XC.m.X.'.(.(.(._.o.+ @ # - - H.}.|.}.}.{.].).(.(.).)._.i.O $ > Z m k.0.w.e.e.e.e.k.k.e.k.k.k. X X",
" X XC.Z.7.j.).(.(.~.5 # # # % 1 G [.`.`.`.`.)././.)._.`.(.@ $ - q _ U 0.e.w.e.w.w.w.e.w.w.e.l.T  X X",
" X XZ.Z.S.{ z._.R.G o # # # % 1 i X.`.(.(./././.(._._.[.z < 2 8 Z f w.0.w.e.w.w.w.w.e.w.*. X X X X X",
" X XC.Z.C.Z.Y 7 q % @ @ # # % 1 3 D ^ )././././.).).|./ 1 q w l Z U e.e.k.e.w.w.e.e.e.8. X X X X X X",
" X X X X7.C.Y P.< 3 # # @ @ # 1 3 0 p 2 p._.(.).[.I.e 7 0 q y P d e.w.k.k.k.k.k.k.e.x.|  X X X X X X",
" X X X X Xc.Y ).;.# % + # # - 3 3 3 3 3 - X l w 1 , 0 0 w k Z w 2.6.6.w.k.k.v.k.e.b.V. X X X X X X X",
" X X X X X X| { v.&.u +.v , % % & $ @ 1 q D.J > 0 7 q y l Z l -.8.6.6.6.w.l.k. X X X X X X X X X X X",
" X X X X X Xx.k.k.l.g H g.s.s.#.+.,.,.d.K |.1 0 0 e l b L e :.e.8.6.6.6.6.k. X X X X X X X X X X X X",
" X X X X X Xk.l.8.4.w.s y ,.f.h.M.N.U.U.o.^ 6 q a z C Z f 8.9.k.w.6.6.6.8.w. X X X X X X X X X X X X",
" X X X X X X X*. X X X6.I % b O.y.y.` 9 X $ 6 a S M k Q b.k.x.l.k.w.8.8.8.4. X X X X X X X X X X X X",
" X X X X X X X X X X X Xe.8.U 9 1 y C Z Z C z a k &.l.l.k.k.k.k.e.8.6.6.6.2. X X X X X X X X X X X X",
" X X X X X X X X X X X Xw.w.w.w.8.E g d U | 0.V.b.l.k.w.w.e.e.k.w.6.6.2.2.6. Xv.v.l. X X X X X X X X",
" X X X X X X X X X X X Xe.e.e.e.8.8.w.w.9.e.l.l.l.k.e.8. X X*.e.6.1.1.=.I  X Xk.b.;. X X X X X X X X",
" X X X X X X X X X X X Xx.e.l.e.9.w.w.N  X X8.w.w.w.8.;. X X X3.1.<.=. X X X X X X X X X X X X X X X",
" X X X X X X X X X X X X X*.v.l.k.w.e.;. X X=.3.3.3.W  X X X X X<.1.R  X Xe. X X X X X X X X X X X X",
" X X X X X X X X X X X X X X Xk.l.v.k.w. X X XE  X X X X X X X X X X X X X X X X X X X X X X X X X X",
" X X X X X X X X X X X X X X X X| N  X X X X X X X X X X X X X X X X X X X X X X X X X X X X X X X X",
" X X X X X X X X X X X X X X X X X X X X X X X X X X X X X X X X X X X X X X X X X X X X X X X X X X"
};
